<svg width="1440" height="331" viewBox="0 0 1440 331" fill="none" xmlns="http://www.w3.org/2000/svg">
<path fill-rule="evenodd" clip-rule="evenodd" d="M0 167.203L60 161.409C120 155.614 240 143.198 360 137.404C480 131.609 600 131.609 720 143.198C840 155.614 960 178.792 1080 161.409C1200 143.198 1320 83.599 1380 53.7995L1440 24V346H1380C1320 346 1200 346 1080 346C960 346 840 346 720 346C600 346 480 346 360 346C240 346 120 346 60 346H0V167.203Z" fill="#FF9E40"/>
<path fill-rule="evenodd" clip-rule="evenodd" d="M0 173L60 159C120 144 240 116 360 144C480 173 600 260 720 303C840 346 960 346 1080 288C1200 231 1320 116 1380 58L1440 0V346H1380C1320 346 1200 346 1080 346C960 346 840 346 720 346C600 346 480 346 360 346C240 346 120 346 60 346H0V173Z" fill="#03579C"/>
</svg>
