<svg width="34" height="26" viewBox="0 0 34 26" fill="none" xmlns="http://www.w3.org/2000/svg">
<path d="M21.9523 12.6896C21.0809 12.6896 20.2611 12.1798 19.8176 11.3642L16.5022 5.32631L13.1919 11.3642C12.7433 12.1855 11.9234 12.6953 11.052 12.6953C10.82 12.6953 10.588 12.6613 10.3662 12.5876L3.30218 10.3673V20.4494C3.30218 21.282 3.81781 22.007 4.54999 22.2052L15.6978 25.2695C16.2237 25.4111 16.7755 25.4111 17.2962 25.2695L28.4544 22.2052C29.1866 22.0013 29.7022 21.2763 29.7022 20.4494V10.3673L22.6381 12.582C22.4164 12.6556 22.1844 12.6896 21.9523 12.6896ZM32.9145 6.33452L30.2591 0.511859C30.0992 0.160687 29.7537 -0.0432189 29.398 0.00775766L16.5022 1.81459L21.2305 10.4296C21.4264 10.7865 21.8183 10.9564 22.1844 10.8431L32.3886 7.64291C32.8991 7.47866 33.1466 6.85561 32.9145 6.33452ZM2.74531 0.511859L0.0898387 6.33452C-0.147349 6.85561 0.105307 7.47866 0.61062 7.63725L10.8148 10.8374C11.1809 10.9507 11.5728 10.7808 11.7687 10.424L16.5022 1.81459L3.60125 0.00775766C3.24546 -0.0375548 2.90515 0.160687 2.74531 0.511859Z" fill="#212121"/>
</svg>
