<svg width="8" height="11" viewBox="0 0 8 11" fill="none" xmlns="http://www.w3.org/2000/svg">
<path d="M4 0C1.7904 0 0 1.91674 0 4.29096C0 8.39618 4 11 4 11C4 11 8 8.39532 8 4.29096C8 1.9176 6.2096 0 4 0ZM4 6.66518C3.42713 6.66518 2.87773 6.42057 2.47265 5.98515C2.06757 5.54974 1.84 4.95919 1.84 4.34342C1.84 3.72765 2.06757 3.1371 2.47265 2.70168C2.87773 2.26627 3.42713 2.02165 4 2.02165C4.57287 2.02165 5.12227 2.26627 5.52735 2.70168C5.93243 3.1371 6.16 3.72765 6.16 4.34342C6.16 4.95919 5.93243 5.54974 5.52735 5.98515C5.12227 6.42057 4.57287 6.66518 4 6.66518Z" fill="white"/>
</svg>
