<svg width="131" height="94" viewBox="0 0 131 94" fill="none" xmlns="http://www.w3.org/2000/svg">
<path d="M8.70909 57.7532C10.1131 57.7532 11.3154 58.1042 12.3162 58.8062C13.3318 59.4933 14.101 60.4342 14.6238 61.6291C15.1615 62.8091 15.4304 64.1309 15.4304 65.5947C15.4304 67.0584 15.1615 68.3877 14.6238 69.5826C14.101 70.7626 13.3318 71.7036 12.3162 72.4056C11.3154 73.0926 10.1131 73.4362 8.70909 73.4362H3.35447C2.96613 73.4362 2.63754 73.3092 2.36869 73.0553C2.11477 72.7864 1.98781 72.4578 1.98781 72.0695V59.1198C1.98781 58.7315 2.11477 58.4104 2.36869 58.1565C2.63754 57.8876 2.96613 57.7532 3.35447 57.7532H8.70909ZM8.48505 70.8597C9.8293 70.8597 10.8375 70.3668 11.5096 69.381C12.1817 68.3803 12.5178 67.1182 12.5178 65.5947C12.5178 64.0712 12.1743 62.8165 11.4872 61.8308C10.8151 60.83 9.81437 60.3297 8.48505 60.3297H4.78834V70.8597H8.48505Z" fill="#002F6C"/>
<path d="M26.8754 70.8597C27.2638 70.8597 27.5849 70.9941 27.8388 71.263C28.1077 71.5169 28.2421 71.8156 28.2421 72.1591C28.2421 72.5325 28.1077 72.8387 27.8388 73.0777C27.5849 73.3167 27.2638 73.4362 26.8754 73.4362H19.37C18.9817 73.4362 18.6531 73.3092 18.3842 73.0553C18.1303 72.7864 18.0034 72.4578 18.0034 72.0695V59.1198C18.0034 58.7315 18.1303 58.4104 18.3842 58.1565C18.6531 57.8876 18.9817 57.7532 19.37 57.7532H26.8754C27.2638 57.7532 27.5849 57.8801 27.8388 58.1341C28.1077 58.373 28.2421 58.6867 28.2421 59.075C28.2421 59.4484 28.1151 59.7546 27.8612 59.9936C27.6073 60.2177 27.2787 60.3297 26.8754 60.3297H20.8039V64.1384H25.8672C26.2556 64.1384 26.5767 64.2654 26.8306 64.5193C27.0995 64.7582 27.2339 65.0719 27.2339 65.4603C27.2339 65.8337 27.1069 66.1398 26.853 66.3788C26.5991 66.6029 26.2705 66.7149 25.8672 66.7149H20.8039V70.8597H26.8754Z" fill="#002F6C"/>
<path d="M35.8655 73.6602C34.7901 73.6602 33.8342 73.5258 32.9977 73.2569C32.1613 72.9881 31.3772 72.5325 30.6453 71.8903C30.242 71.5318 30.0404 71.136 30.0404 70.7028C30.0404 70.3593 30.1673 70.0606 30.4213 69.8067C30.6752 69.5378 30.9814 69.4034 31.3398 69.4034C31.6236 69.4034 31.8775 69.493 32.1016 69.6722C32.699 70.1651 33.2815 70.5236 33.8491 70.7477C34.4167 70.9717 35.0888 71.0837 35.8655 71.0837C36.7019 71.0837 37.4189 70.897 38.0163 70.5236C38.6287 70.1502 38.9349 69.6872 38.9349 69.1345C38.9349 68.4624 38.6362 67.9397 38.0387 67.5662C37.4413 67.1779 36.4928 66.8867 35.1934 66.6925C31.9223 66.2145 30.2868 64.691 30.2868 62.122C30.2868 61.181 30.5333 60.367 31.0262 59.68C31.5191 58.978 32.1912 58.4477 33.0426 58.0893C33.8939 57.7158 34.8424 57.5291 35.8879 57.5291C36.8289 57.5291 37.7101 57.671 38.5316 57.9548C39.368 58.2386 40.0626 58.612 40.6152 59.075C41.0483 59.4186 41.2649 59.8144 41.2649 60.2625C41.2649 60.606 41.138 60.9122 40.884 61.181C40.6301 61.435 40.3314 61.5619 39.9879 61.5619C39.7638 61.5619 39.5622 61.4947 39.383 61.3603C38.9946 61.0466 38.4495 60.7628 37.7475 60.5089C37.0604 60.2401 36.4405 60.1056 35.8879 60.1056C34.9469 60.1056 34.215 60.2849 33.6923 60.6433C33.1844 60.9869 32.9305 61.4424 32.9305 62.01C32.9305 62.6523 33.1919 63.1377 33.7147 63.4663C34.2524 63.7949 35.0888 64.0637 36.224 64.2728C37.5085 64.4969 38.5316 64.7881 39.2933 65.1466C40.07 65.4901 40.6525 65.9681 41.0409 66.5805C41.4292 67.1779 41.6234 67.977 41.6234 68.9777C41.6234 69.9187 41.3545 70.7477 40.8168 71.4646C40.2941 72.1666 39.5921 72.7118 38.7108 73.1001C37.8296 73.4735 36.8812 73.6602 35.8655 73.6602Z" fill="#002F6C"/>
<path d="M50.6675 57.7532C51.4293 57.7532 52.1537 57.9847 52.8407 58.4477C53.5278 58.8958 54.0804 59.5082 54.4987 60.2849C54.9169 61.0466 55.126 61.883 55.126 62.7941C55.126 63.6903 54.9169 64.5267 54.4987 65.3034C54.0804 66.0801 53.5278 66.7 52.8407 67.163C52.1537 67.6111 51.4293 67.8351 50.6675 67.8351H46.7692V72.0695C46.7692 72.4728 46.6497 72.8014 46.4107 73.0553C46.1717 73.3092 45.8581 73.4362 45.4697 73.4362C45.0963 73.4362 44.7901 73.3092 44.5512 73.0553C44.3122 72.7864 44.1927 72.4578 44.1927 72.0695V59.1198C44.1927 58.7315 44.3197 58.4104 44.5736 58.1565C44.8424 57.8876 45.171 57.7532 45.5594 57.7532H50.6675ZM50.6675 65.281C50.9513 65.281 51.2276 65.1615 51.4965 64.9225C51.7803 64.6836 52.0043 64.3774 52.1686 64.004C52.3478 63.6156 52.4375 63.2124 52.4375 62.7941C52.4375 62.3759 52.3478 61.9801 52.1686 61.6067C52.0043 61.2184 51.7803 60.9122 51.4965 60.6881C51.2276 60.4492 50.9513 60.3297 50.6675 60.3297H46.7692V65.281H50.6675Z" fill="#002F6C"/>
<path d="M64.167 57.7532C64.9287 57.7532 65.6531 57.9847 66.3402 58.4477C67.0272 58.8958 67.5799 59.5082 67.9981 60.2849C68.4163 61.0466 68.6254 61.883 68.6254 62.7941C68.6254 63.6903 68.4163 64.5267 67.9981 65.3034C67.5799 66.0801 67.0272 66.7 66.3402 67.163C65.6531 67.6111 64.9287 67.8351 64.167 67.8351H60.2686V72.0695C60.2686 72.4728 60.1491 72.8014 59.9102 73.0553C59.6712 73.3092 59.3575 73.4362 58.9692 73.4362C58.5958 73.4362 58.2896 73.3092 58.0506 73.0553C57.8116 72.7864 57.6921 72.4578 57.6921 72.0695V59.1198C57.6921 58.7315 57.8191 58.4104 58.073 58.1565C58.3419 57.8876 58.6705 57.7532 59.0588 57.7532H64.167ZM64.167 65.281C64.4508 65.281 64.7271 65.1615 64.9959 64.9225C65.2797 64.6836 65.5037 64.3774 65.668 64.004C65.8473 63.6156 65.9369 63.2124 65.9369 62.7941C65.9369 62.3759 65.8473 61.9801 65.668 61.6067C65.5037 61.2184 65.2797 60.9122 64.9959 60.6881C64.7271 60.4492 64.4508 60.3297 64.167 60.3297H60.2686V65.281H64.167Z" fill="#002F6C"/>
<path d="M82.5945 71.6886C82.6691 71.8828 82.7065 72.062 82.7065 72.2263C82.7065 72.6147 82.5795 72.9358 82.3256 73.1897C82.0717 73.4287 81.7804 73.5482 81.4518 73.5482C81.183 73.5482 80.9365 73.466 80.7125 73.3017C80.5034 73.1374 80.3391 72.9134 80.2196 72.6296L79.0546 69.9187H72.3781L71.2131 72.652C71.1086 72.9358 70.9443 73.1598 70.7202 73.3241C70.5111 73.4735 70.2796 73.5482 70.0257 73.5482C69.6373 73.5482 69.3386 73.4436 69.1295 73.2345C68.9353 73.0254 68.8382 72.7416 68.8382 72.3832C68.8382 72.2487 68.8607 72.1068 68.9055 71.9575L74.4841 58.5597C74.6036 58.261 74.7828 58.0295 75.0218 57.8652C75.2608 57.7009 75.5297 57.6337 75.8284 57.6636C76.0972 57.6636 76.3437 57.7457 76.5677 57.91C76.8067 58.0594 76.9785 58.276 77.083 58.5597L82.5945 71.6886ZM77.9568 67.3422L75.6939 62.0996L73.4759 67.3422H77.9568Z" fill="#002F6C"/>
<path d="M95.4722 58.5149C95.9352 58.7539 96.1667 59.1348 96.1667 59.6575C96.1667 59.9712 96.0547 60.2774 95.8307 60.5761C95.5917 60.8898 95.2855 61.0466 94.9121 61.0466C94.6582 61.0466 94.4042 60.9794 94.1503 60.845C93.4184 60.5014 92.6268 60.3297 91.7755 60.3297C90.7299 60.3297 89.8188 60.5537 89.0422 61.0018C88.2655 61.435 87.668 62.0548 87.2498 62.8614C86.8316 63.653 86.6225 64.5641 86.6225 65.5947C86.6225 67.3571 87.093 68.6939 88.034 69.605C88.9899 70.5161 90.2371 70.9717 91.7755 70.9717C92.6866 70.9717 93.4782 70.7999 94.1503 70.4564C94.4192 70.3369 94.6582 70.2772 94.8673 70.2772C95.2556 70.2772 95.5842 70.4415 95.8531 70.7701C96.0771 71.0538 96.1891 71.36 96.1891 71.6886C96.1891 71.9276 96.1294 72.1442 96.0099 72.3384C95.8904 72.5325 95.7186 72.6819 95.4946 72.7864C94.3296 73.369 93.0899 73.6602 91.7755 73.6602C90.3117 73.6602 88.9675 73.354 87.7427 72.7416C86.518 72.1143 85.5396 71.1957 84.8078 69.9859C84.0759 68.7761 83.7099 67.3123 83.7099 65.5947C83.7099 64.0712 84.0535 62.7045 84.7405 61.4947C85.4425 60.2849 86.4059 59.3439 87.6307 58.6718C88.8555 57.9847 90.2371 57.6412 91.7755 57.6412C93.1048 57.6412 94.337 57.9324 95.4722 58.5149Z" fill="#002F6C"/>
<path d="M109.899 57.7532C110.318 57.7532 110.654 57.8801 110.908 58.1341C111.162 58.388 111.289 58.7166 111.289 59.1198V72.0695C111.289 72.4578 111.154 72.7864 110.885 73.0553C110.616 73.3092 110.273 73.4362 109.855 73.4362C109.481 73.4362 109.16 73.3092 108.891 73.0553C108.622 72.7864 108.488 72.4578 108.488 72.0695V66.8493H101.341V72.0695C101.341 72.4578 101.199 72.7864 100.915 73.0553C100.632 73.3092 100.303 73.4362 99.9296 73.4362C99.5263 73.4362 99.1902 73.3092 98.9214 73.0553C98.6675 72.7864 98.5405 72.4578 98.5405 72.0695V59.1198C98.5405 58.7315 98.6749 58.4104 98.9438 58.1565C99.2126 57.8876 99.5562 57.7532 99.9744 57.7532C100.348 57.7532 100.669 57.8876 100.938 58.1565C101.207 58.4104 101.341 58.7315 101.341 59.1198V64.2728H108.488V59.1198C108.488 58.7315 108.63 58.4104 108.914 58.1565C109.197 57.8876 109.526 57.7532 109.899 57.7532Z" fill="#002F6C"/>
<path d="M126.943 71.6886C127.018 71.8828 127.056 72.062 127.056 72.2263C127.056 72.6147 126.929 72.9358 126.675 73.1897C126.421 73.4287 126.129 73.5482 125.801 73.5482C125.532 73.5482 125.286 73.466 125.062 73.3017C124.852 73.1374 124.688 72.9134 124.569 72.6296L123.404 69.9187H116.727L115.562 72.652C115.458 72.9358 115.293 73.1598 115.069 73.3241C114.86 73.4735 114.629 73.5482 114.375 73.5482C113.986 73.5482 113.688 73.4436 113.479 73.2345C113.284 73.0254 113.187 72.7416 113.187 72.3832C113.187 72.2487 113.21 72.1068 113.255 71.9575L118.833 58.5597C118.953 58.261 119.132 58.0295 119.371 57.8652C119.61 57.7009 119.879 57.6337 120.177 57.6636C120.446 57.6636 120.693 57.7457 120.917 57.91C121.156 58.0594 121.327 58.276 121.432 58.5597L126.943 71.6886ZM122.306 67.3422L120.043 62.0996L117.825 67.3422H122.306Z" fill="#002F6C"/>
<path d="M3.64415 84.0782C4.32125 84.0782 4.88903 84.2475 5.34749 84.586C5.813 84.9175 6.15861 85.3654 6.38431 85.9296C6.61706 86.4868 6.73344 87.104 6.73344 87.7811C6.73344 88.4794 6.61706 89.1071 6.38431 89.6643C6.15861 90.2215 5.813 90.6659 5.34749 90.9974C4.88903 91.3218 4.32125 91.484 3.64415 91.484H0.9463C0.854608 91.484 0.777023 91.4558 0.713545 91.3994C0.657119 91.3359 0.628906 91.2583 0.628906 91.1666V84.3956C0.628906 84.3039 0.657119 84.2298 0.713545 84.1734C0.777023 84.1099 0.854608 84.0782 0.9463 84.0782H3.64415ZM3.53835 90.8598C4.38473 90.8598 5.01599 90.5777 5.43213 90.0134C5.84827 89.4421 6.05634 88.698 6.05634 87.7811C6.05634 87.2098 5.96817 86.6949 5.79184 86.2365C5.61551 85.7709 5.33691 85.4007 4.95604 85.1256C4.58222 84.8435 4.10966 84.7024 3.53835 84.7024H1.29543V90.8598H3.53835Z" fill="#002F6C"/>
<path d="M12.7276 88.4688C12.7276 88.5534 12.6958 88.6275 12.6323 88.691C12.5689 88.7474 12.4948 88.7756 12.4102 88.7756H8.411C8.411 89.1988 8.49564 89.5797 8.66491 89.9182C8.84124 90.2497 9.08811 90.5142 9.4055 90.7117C9.72995 90.9021 10.1108 90.9974 10.5481 90.9974C10.8867 90.9974 11.19 90.9268 11.458 90.7858C11.726 90.6447 11.9411 90.4648 12.1033 90.2462C12.1809 90.1827 12.255 90.151 12.3255 90.151C12.3961 90.151 12.4595 90.1792 12.516 90.2356C12.5724 90.292 12.6006 90.3555 12.6006 90.4261C12.6006 90.5036 12.5653 90.5777 12.4948 90.6482C12.2691 90.9233 11.9834 91.149 11.6378 91.3253C11.2993 91.5017 10.9396 91.5898 10.5587 91.5898C10.0156 91.5898 9.53598 91.4735 9.11985 91.2407C8.70371 91.0079 8.37926 90.6835 8.1465 90.2674C7.91375 89.8442 7.79737 89.3575 7.79737 88.8073C7.79737 88.229 7.91022 87.7247 8.13593 87.2944C8.36868 86.8571 8.67549 86.5256 9.05637 86.2999C9.43724 86.0672 9.8428 85.9508 10.273 85.9508C10.6962 85.9508 11.0912 86.0495 11.458 86.247C11.8318 86.4445 12.1351 86.7337 12.3678 87.1146C12.6006 87.4955 12.7205 87.9469 12.7276 88.4688ZM10.273 86.5644C9.86396 86.5644 9.48308 86.7055 9.13043 86.9876C8.78482 87.2698 8.56264 87.6753 8.4639 88.2043H12.0716V88.1197C12.0363 87.8023 11.9305 87.5272 11.7542 87.2944C11.5779 87.0546 11.3557 86.8748 11.0877 86.7549C10.8267 86.6279 10.5552 86.5644 10.273 86.5644Z" fill="#002F6C"/>
<path d="M13.7291 90.6271C13.6727 90.5354 13.6444 90.4578 13.6444 90.3943C13.6444 90.3026 13.6903 90.2321 13.782 90.1827C13.8243 90.1404 13.8807 90.1192 13.9513 90.1192C14.0359 90.1192 14.1135 90.1545 14.184 90.225C14.6001 90.7752 15.1538 91.0503 15.845 91.0503C16.1836 91.0503 16.4763 90.9727 16.7232 90.8175C16.9771 90.6553 17.104 90.4225 17.104 90.1192C17.104 89.823 16.9877 89.6008 16.7549 89.4527C16.5221 89.3046 16.1977 89.1776 15.7816 89.0718C15.1961 88.9237 14.7377 88.7333 14.4062 88.5005C14.0747 88.2607 13.9089 87.9116 13.9089 87.4531C13.9089 87.164 13.99 86.9065 14.1523 86.6808C14.3145 86.4481 14.5331 86.2682 14.8082 86.1412C15.0903 86.0143 15.4077 85.9508 15.7604 85.9508C16.0637 85.9508 16.367 86.0108 16.6703 86.1307C16.9806 86.2435 17.2451 86.4269 17.4637 86.6808C17.5272 86.7302 17.559 86.8007 17.559 86.8924C17.559 86.977 17.5237 87.0511 17.4532 87.1146C17.4038 87.1569 17.3403 87.1781 17.2627 87.1781C17.1922 87.1781 17.1287 87.1498 17.0723 87.0934C16.903 86.903 16.702 86.7584 16.4692 86.6597C16.2365 86.5609 15.9861 86.5115 15.7181 86.5115C15.3866 86.5115 15.1009 86.5891 14.8611 86.7443C14.6284 86.8995 14.512 87.1322 14.512 87.4426C14.5261 87.7247 14.653 87.9398 14.8929 88.0879C15.1397 88.236 15.4994 88.37 15.972 88.49C16.3388 88.5816 16.642 88.6839 16.8819 88.7968C17.1217 88.9096 17.3156 89.0683 17.4637 89.2729C17.6189 89.4774 17.6965 89.7489 17.6965 90.0875C17.6965 90.546 17.5131 90.9127 17.1463 91.1878C16.7796 91.4558 16.3247 91.5898 15.7816 91.5898C14.9211 91.5898 14.2369 91.2689 13.7291 90.6271Z" fill="#002F6C"/>
<path d="M21.5661 86.0354C22.0316 86.0354 22.4548 86.1553 22.8356 86.3952C23.2165 86.6279 23.5127 86.9559 23.7243 87.3791C23.943 87.7952 24.0523 88.2643 24.0523 88.7862C24.0523 89.3152 23.943 89.7913 23.7243 90.2145C23.5127 90.6306 23.2165 90.9586 22.8356 91.1984C22.4618 91.4382 22.0421 91.5581 21.5766 91.5581C21.1675 91.5581 20.7902 91.4629 20.4446 91.2724C20.106 91.0749 19.8345 90.814 19.63 90.4895V93.2826C19.63 93.3743 19.5982 93.4483 19.5347 93.5048C19.4783 93.5683 19.4043 93.6 19.3126 93.6C19.2209 93.6 19.1433 93.5683 19.0798 93.5048C19.0234 93.4483 18.9952 93.3743 18.9952 93.2826V86.3846C18.9952 86.2929 19.0234 86.2153 19.0798 86.1518C19.1433 86.0883 19.2209 86.0566 19.3126 86.0566C19.4043 86.0566 19.4783 86.0883 19.5347 86.1518C19.5982 86.2153 19.63 86.2929 19.63 86.3846V87.104C19.8133 86.7725 20.0778 86.5115 20.4234 86.3211C20.769 86.1307 21.1499 86.0354 21.5661 86.0354ZM21.5132 90.9656C21.8799 90.9656 22.2079 90.8739 22.4971 90.6905C22.7933 90.5001 23.0225 90.2391 23.1848 89.9076C23.354 89.5761 23.4387 89.2023 23.4387 88.7862C23.4387 88.3771 23.354 88.0103 23.1848 87.6859C23.0225 87.3544 22.7933 87.0969 22.4971 86.9136C22.2079 86.7231 21.8799 86.6279 21.5132 86.6279C21.1393 86.6279 20.8043 86.7196 20.5081 86.903C20.2118 87.0864 19.9826 87.3438 19.8204 87.6753C19.6582 87.9998 19.5771 88.3701 19.5771 88.7862C19.5771 89.2023 19.6582 89.5761 19.8204 89.9076C19.9826 90.2391 20.2118 90.5001 20.5081 90.6905C20.8043 90.8739 21.1393 90.9656 21.5132 90.9656Z" fill="#002F6C"/>
<path d="M29.7502 86.0778C29.8419 86.0778 29.9159 86.1095 29.9724 86.173C30.0358 86.2365 30.0676 86.314 30.0676 86.4057V91.1666C30.0676 91.2583 30.0358 91.3359 29.9724 91.3994C29.9159 91.4558 29.8419 91.484 29.7502 91.484C29.6585 91.484 29.5809 91.4558 29.5174 91.3994C29.461 91.3359 29.4328 91.2583 29.4328 91.1666V90.4578C29.2565 90.7752 28.992 91.0432 28.6393 91.2619C28.2866 91.4805 27.9022 91.5898 27.4861 91.5898C27.0135 91.5898 26.5868 91.4664 26.2059 91.2195C25.8321 90.9727 25.5359 90.6341 25.3172 90.2039C25.1057 89.7736 24.9999 89.2905 24.9999 88.7544C24.9999 88.2184 25.1092 87.7388 25.3278 87.3156C25.5465 86.8854 25.8427 86.5503 26.2165 86.3105C26.5974 86.0707 27.0171 85.9508 27.4755 85.9508C27.8987 85.9508 28.2866 86.0531 28.6393 86.2576C28.992 86.4622 29.2565 86.7302 29.4328 87.0617V86.4057C29.4328 86.314 29.461 86.2365 29.5174 86.173C29.5809 86.1095 29.6585 86.0778 29.7502 86.0778ZM27.5496 90.9974C27.9163 90.9974 28.2443 90.9021 28.5335 90.7117C28.8297 90.5142 29.059 90.2462 29.2212 89.9076C29.3905 89.562 29.4751 89.1776 29.4751 88.7544C29.4751 88.3454 29.3905 87.9715 29.2212 87.633C29.059 87.2944 28.8297 87.0299 28.5335 86.8395C28.2443 86.642 27.9163 86.5433 27.5496 86.5433C27.1828 86.5433 26.8513 86.6385 26.5551 86.8289C26.2659 87.0194 26.0367 87.2839 25.8674 87.6224C25.7052 87.9539 25.6241 88.3313 25.6241 88.7544C25.6241 89.1776 25.7052 89.562 25.8674 89.9076C26.0296 90.2462 26.2553 90.5142 26.5445 90.7117C26.8407 90.9021 27.1758 90.9974 27.5496 90.9974Z" fill="#002F6C"/>
<path d="M34.0621 85.9508C34.3936 85.9508 34.7004 85.9896 34.9825 86.0672C35.2717 86.1377 35.501 86.2365 35.6702 86.3634C35.8466 86.4904 35.9347 86.6279 35.9347 86.776C35.9347 86.8536 35.9065 86.9241 35.8501 86.9876C35.8007 87.0511 35.7372 87.0828 35.6596 87.0828C35.5891 87.0828 35.5292 87.0687 35.4798 87.0405C35.4375 87.0123 35.3881 86.97 35.3317 86.9136C35.24 86.8219 35.1518 86.7549 35.0672 86.7125C34.9614 86.6632 34.8203 86.6244 34.644 86.5962C34.4747 86.5609 34.2913 86.5433 34.0938 86.5433C33.7059 86.5433 33.3497 86.642 33.0253 86.8395C32.7079 87.037 32.4575 87.305 32.2741 87.6436C32.0907 87.9821 31.999 88.3559 31.999 88.765C31.999 89.1882 32.0872 89.5691 32.2635 89.9076C32.4399 90.2462 32.6832 90.5142 32.9935 90.7117C33.3109 90.9021 33.6707 90.9974 34.0727 90.9974C34.3266 90.9974 34.5276 90.9762 34.6757 90.9339C34.8309 90.8916 34.9825 90.8316 35.1307 90.754C35.18 90.7258 35.2647 90.6623 35.3846 90.5636C35.441 90.5142 35.4904 90.479 35.5327 90.4578C35.575 90.4296 35.6209 90.4155 35.6702 90.4155C35.7549 90.4155 35.8219 90.4437 35.8712 90.5001C35.9206 90.5495 35.9453 90.6165 35.9453 90.7011C35.9453 90.821 35.8607 90.9515 35.6914 91.0926C35.5221 91.2266 35.2894 91.343 34.9931 91.4417C34.6969 91.5405 34.3689 91.5898 34.0092 91.5898C33.4943 91.5898 33.0359 91.4699 32.6338 91.2301C32.2318 90.9833 31.9179 90.6447 31.6922 90.2145C31.4736 89.7842 31.3643 89.3011 31.3643 88.765C31.3643 88.2501 31.4771 87.7811 31.7028 87.3579C31.9285 86.9277 32.2459 86.5856 32.655 86.3317C33.0641 86.0778 33.5331 85.9508 34.0621 85.9508Z" fill="#002F6C"/>
<path d="M39.6236 86.0354C40.2584 86.0354 40.7309 86.2365 41.0413 86.6385C41.3516 87.0335 41.5068 87.5448 41.5068 88.1726V91.1666C41.5068 91.2583 41.4751 91.3359 41.4116 91.3994C41.3552 91.4558 41.2811 91.484 41.1894 91.484C41.0977 91.484 41.0201 91.4558 40.9566 91.3994C40.9002 91.3359 40.872 91.2583 40.872 91.1666V88.1726C40.872 87.7141 40.7627 87.3438 40.544 87.0617C40.3254 86.7725 39.9833 86.6279 39.5178 86.6279C39.2216 86.6279 38.9394 86.6984 38.6714 86.8395C38.4104 86.9806 38.1989 87.171 38.0366 87.4108C37.8744 87.6436 37.7933 87.8975 37.7933 88.1726V91.1666C37.7933 91.2583 37.7616 91.3359 37.6981 91.3994C37.6417 91.4558 37.5676 91.484 37.4759 91.484C37.3842 91.484 37.3066 91.4558 37.2431 91.3994C37.1867 91.3359 37.1585 91.2583 37.1585 91.1666V83.9724C37.1585 83.8807 37.1867 83.8066 37.2431 83.7502C37.3066 83.6867 37.3842 83.655 37.4759 83.655C37.5676 83.655 37.6417 83.6867 37.6981 83.7502C37.7616 83.8066 37.7933 83.8807 37.7933 83.9724V87.0723C37.9837 86.769 38.2482 86.5221 38.5868 86.3317C38.9253 86.1342 39.2709 86.0354 39.6236 86.0354Z" fill="#002F6C"/>
<path d="M47.5622 86.0778C47.6539 86.0778 47.728 86.1095 47.7844 86.173C47.8479 86.2365 47.8796 86.314 47.8796 86.4057V91.1666C47.8796 91.2583 47.8479 91.3359 47.7844 91.3994C47.728 91.4558 47.6539 91.484 47.5622 91.484C47.4706 91.484 47.393 91.4558 47.3295 91.3994C47.2731 91.3359 47.2448 91.2583 47.2448 91.1666V90.4578C47.0685 90.7752 46.804 91.0432 46.4514 91.2619C46.0987 91.4805 45.7143 91.5898 45.2982 91.5898C44.8256 91.5898 44.3989 91.4664 44.018 91.2195C43.6442 90.9727 43.348 90.6341 43.1293 90.2039C42.9177 89.7736 42.8119 89.2905 42.8119 88.7544C42.8119 88.2184 42.9212 87.7388 43.1399 87.3156C43.3585 86.8854 43.6548 86.5503 44.0286 86.3105C44.4095 86.0707 44.8291 85.9508 45.2876 85.9508C45.7108 85.9508 46.0987 86.0531 46.4514 86.2576C46.804 86.4622 47.0685 86.7302 47.2448 87.0617V86.4057C47.2448 86.314 47.2731 86.2365 47.3295 86.173C47.393 86.1095 47.4706 86.0778 47.5622 86.0778ZM45.3616 90.9974C45.7284 90.9974 46.0564 90.9021 46.3456 90.7117C46.6418 90.5142 46.871 90.2462 47.0332 89.9076C47.2025 89.562 47.2872 89.1776 47.2872 88.7544C47.2872 88.3454 47.2025 87.9715 47.0332 87.633C46.871 87.2944 46.6418 87.0299 46.3456 86.8395C46.0564 86.642 45.7284 86.5433 45.3616 86.5433C44.9949 86.5433 44.6634 86.6385 44.3671 86.8289C44.078 87.0194 43.8487 87.2839 43.6795 87.6224C43.5172 87.9539 43.4361 88.3313 43.4361 88.7544C43.4361 89.1776 43.5172 89.562 43.6795 89.9076C43.8417 90.2462 44.0674 90.5142 44.3566 90.7117C44.6528 90.9021 44.9878 90.9974 45.3616 90.9974Z" fill="#002F6C"/>
<path d="M52.0858 85.9508C52.7417 85.9508 53.2213 86.1448 53.5246 86.5327C53.8349 86.9136 53.9901 87.4214 53.9901 88.0562V91.1666C53.9901 91.2583 53.9584 91.3359 53.8949 91.3994C53.8314 91.4558 53.7574 91.484 53.6727 91.484C53.581 91.484 53.5034 91.4558 53.44 91.3994C53.3835 91.3359 53.3553 91.2583 53.3553 91.1666V88.0879C53.3553 87.6295 53.239 87.2592 53.0062 86.977C52.7805 86.6879 52.4278 86.5433 51.9482 86.5433C51.6449 86.5433 51.3558 86.6138 51.0807 86.7549C50.8127 86.8959 50.594 87.0864 50.4247 87.3262C50.2555 87.5589 50.1708 87.8128 50.1708 88.0879V91.1666C50.1708 91.2583 50.1391 91.3359 50.0756 91.3994C50.0192 91.4558 49.9451 91.484 49.8534 91.484C49.7617 91.484 49.6841 91.4558 49.6207 91.3994C49.5642 91.3359 49.536 91.2583 49.536 91.1666V86.4269C49.536 86.3352 49.5642 86.2611 49.6207 86.2047C49.6841 86.1412 49.7617 86.1095 49.8534 86.1095C49.9451 86.1095 50.0192 86.1412 50.0756 86.2047C50.1391 86.2611 50.1708 86.3352 50.1708 86.4269V87.0088C50.3613 86.7055 50.6328 86.4551 50.9855 86.2576C51.3452 86.0531 51.7119 85.9508 52.0858 85.9508Z" fill="#002F6C"/>
<path d="M56.7104 86.6914V90.2356C56.7104 90.5036 56.7598 90.687 56.8586 90.7858C56.9573 90.8775 57.0878 90.9233 57.25 90.9233C57.2923 90.9233 57.3452 90.9163 57.4087 90.9021C57.4722 90.881 57.5216 90.8704 57.5568 90.8704C57.6203 90.8704 57.6732 90.8986 57.7155 90.955C57.7649 91.0044 57.7896 91.0644 57.7896 91.1349C57.7896 91.2336 57.7332 91.3183 57.6203 91.3888C57.5075 91.4523 57.3734 91.484 57.2183 91.484C57.0278 91.484 56.8586 91.4664 56.7104 91.4311C56.5623 91.3959 56.4177 91.2901 56.2767 91.1137C56.1427 90.9374 56.0757 90.6553 56.0757 90.2674V86.6914H55.3033C55.2187 86.6914 55.1446 86.6632 55.0812 86.6068C55.0247 86.5503 54.9965 86.4798 54.9965 86.3952C54.9965 86.3105 55.0247 86.24 55.0812 86.1836C55.1446 86.1271 55.2187 86.0989 55.3033 86.0989H56.0757V84.9246C56.0757 84.8329 56.1039 84.7588 56.1603 84.7024C56.2238 84.6389 56.3014 84.6072 56.3931 84.6072C56.4847 84.6072 56.5588 84.6389 56.6152 84.7024C56.6787 84.7588 56.7104 84.8329 56.7104 84.9246V86.0989H57.7684C57.846 86.0989 57.913 86.1307 57.9694 86.1941C58.0329 86.2576 58.0647 86.3282 58.0647 86.4057C58.0647 86.4904 58.0364 86.5609 57.98 86.6173C57.9236 86.6667 57.8531 86.6914 57.7684 86.6914H56.7104Z" fill="#002F6C"/>
<path d="M63.7564 88.4688C63.7564 88.5534 63.7247 88.6275 63.6612 88.691C63.5977 88.7474 63.5237 88.7756 63.439 88.7756H59.4399C59.4399 89.1988 59.5245 89.5797 59.6938 89.9182C59.8701 90.2497 60.117 90.5142 60.4344 90.7117C60.7588 90.9021 61.1397 90.9974 61.577 90.9974C61.9155 90.9974 62.2188 90.9268 62.4868 90.7858C62.7549 90.6447 62.97 90.4648 63.1322 90.2462C63.2098 90.1827 63.2839 90.151 63.3544 90.151C63.4249 90.151 63.4884 90.1792 63.5448 90.2356C63.6012 90.292 63.6295 90.3555 63.6295 90.4261C63.6295 90.5036 63.5942 90.5777 63.5237 90.6482C63.298 90.9233 63.0123 91.149 62.6667 91.3253C62.3281 91.5017 61.9684 91.5898 61.5876 91.5898C61.0445 91.5898 60.5648 91.4735 60.1487 91.2407C59.7326 91.0079 59.4081 90.6835 59.1754 90.2674C58.9426 89.8442 58.8262 89.3575 58.8262 88.8073C58.8262 88.229 58.9391 87.7247 59.1648 87.2944C59.3975 86.8571 59.7044 86.5256 60.0852 86.2999C60.4661 86.0672 60.8717 85.9508 61.3019 85.9508C61.7251 85.9508 62.1201 86.0495 62.4868 86.247C62.8607 86.4445 63.164 86.7337 63.3967 87.1146C63.6295 87.4955 63.7494 87.9469 63.7564 88.4688ZM61.3019 86.5644C60.8928 86.5644 60.512 86.7055 60.1593 86.9876C59.8137 87.2698 59.5915 87.6753 59.4928 88.2043H63.1005V88.1197C63.0652 87.8023 62.9594 87.5272 62.7831 87.2944C62.6068 87.0546 62.3846 86.8748 62.1166 86.7549C61.8556 86.6279 61.584 86.5644 61.3019 86.5644Z" fill="#002F6C"/>
<path d="M64.7579 90.6271C64.7015 90.5354 64.6733 90.4578 64.6733 90.3943C64.6733 90.3026 64.7192 90.2321 64.8108 90.1827C64.8532 90.1404 64.9096 90.1192 64.9801 90.1192C65.0648 90.1192 65.1423 90.1545 65.2129 90.225C65.629 90.7752 66.1827 91.0503 66.8739 91.0503C67.2125 91.0503 67.5052 90.9727 67.752 90.8175C68.0059 90.6553 68.1329 90.4225 68.1329 90.1192C68.1329 89.823 68.0165 89.6008 67.7838 89.4527C67.551 89.3046 67.2266 89.1776 66.8104 89.0718C66.225 88.9237 65.7665 88.7333 65.4351 88.5005C65.1035 88.2607 64.9378 87.9116 64.9378 87.4531C64.9378 87.164 65.0189 86.9065 65.1811 86.6808C65.3434 86.4481 65.562 86.2682 65.8371 86.1412C66.1192 86.0143 66.4366 85.9508 66.7893 85.9508C67.0926 85.9508 67.3958 86.0108 67.6991 86.1307C68.0095 86.2435 68.274 86.4269 68.4926 86.6808C68.5561 86.7302 68.5878 86.8007 68.5878 86.8924C68.5878 86.977 68.5526 87.0511 68.482 87.1146C68.4327 87.1569 68.3692 87.1781 68.2916 87.1781C68.2211 87.1781 68.1576 87.1498 68.1012 87.0934C67.9319 86.903 67.7309 86.7584 67.4981 86.6597C67.2654 86.5609 67.015 86.5115 66.7469 86.5115C66.4154 86.5115 66.1298 86.5891 65.89 86.7443C65.6572 86.8995 65.5408 87.1322 65.5408 87.4426C65.555 87.7247 65.6819 87.9398 65.9217 88.0879C66.1686 88.236 66.5283 88.37 67.0009 88.49C67.3676 88.5816 67.6709 88.6839 67.9107 88.7968C68.1505 88.9096 68.3445 89.0683 68.4926 89.2729C68.6478 89.4774 68.7254 89.7489 68.7254 90.0875C68.7254 90.546 68.542 90.9127 68.1752 91.1878C67.8084 91.4558 67.3535 91.5898 66.8104 91.5898C65.9499 91.5898 65.2658 91.2689 64.7579 90.6271Z" fill="#002F6C"/>
<path d="M73.7422 91.1561C73.7351 91.2477 73.6999 91.3253 73.6364 91.3888C73.5729 91.4523 73.4953 91.484 73.4036 91.484C73.3049 91.484 73.2238 91.4558 73.1603 91.3994C73.1039 91.3359 73.0756 91.2548 73.0756 91.1561V84.4062C73.0756 84.3074 73.1074 84.2298 73.1709 84.1734C73.2343 84.1099 73.3154 84.0782 73.4142 84.0782C73.5059 84.0782 73.5835 84.1099 73.6469 84.1734C73.7104 84.2369 73.7422 84.3145 73.7422 84.4062V91.1561Z" fill="#002F6C"/>
<path d="M81.6982 86.0354C82.3329 86.0354 82.7985 86.2329 83.0947 86.6279C83.398 87.0158 83.5496 87.5307 83.5496 88.1726V91.1666C83.5496 91.2583 83.5179 91.3359 83.4544 91.3994C83.398 91.4558 83.3239 91.484 83.2322 91.484C83.1405 91.484 83.063 91.4558 82.9995 91.3994C82.9431 91.3359 82.9148 91.2583 82.9148 91.1666V88.2043C82.9148 87.7388 82.802 87.3614 82.5763 87.0723C82.3576 86.776 82.0156 86.6279 81.55 86.6279C81.2538 86.6279 80.9717 86.6984 80.7037 86.8395C80.4427 86.9806 80.2311 87.1745 80.0689 87.4214C79.9067 87.6612 79.8255 87.9222 79.8255 88.2043V91.1666C79.8255 91.2583 79.7938 91.3359 79.7303 91.3994C79.6739 91.4558 79.5998 91.484 79.5081 91.484C79.4165 91.484 79.3389 91.4558 79.2754 91.3994C79.219 91.3359 79.1908 91.2583 79.1908 91.1666V88.1726C79.1908 87.7141 79.085 87.3438 78.8734 87.0617C78.6618 86.7725 78.3303 86.6279 77.8789 86.6279C77.5897 86.6279 77.3146 86.6984 77.0536 86.8395C76.7997 86.9806 76.5917 87.171 76.4294 87.4108C76.2743 87.6436 76.1967 87.8975 76.1967 88.1726V91.1666C76.1967 91.2583 76.1649 91.3359 76.1015 91.3994C76.045 91.4558 75.971 91.484 75.8793 91.484C75.7876 91.484 75.71 91.4558 75.6465 91.3994C75.5901 91.3359 75.5619 91.2583 75.5619 91.1666V86.4269C75.5619 86.3352 75.5901 86.2611 75.6465 86.2047C75.71 86.1412 75.7876 86.1095 75.8793 86.1095C75.971 86.1095 76.045 86.1412 76.1015 86.2047C76.1649 86.2611 76.1967 86.3352 76.1967 86.4269V87.0405C76.3871 86.7513 76.6446 86.5115 76.969 86.3211C77.2934 86.1307 77.6355 86.0354 77.9952 86.0354C78.4043 86.0354 78.757 86.1342 79.0532 86.3317C79.3495 86.5292 79.5611 86.8183 79.688 87.1992C79.8361 86.8889 80.1077 86.6173 80.5027 86.3846C80.8976 86.1518 81.2961 86.0354 81.6982 86.0354Z" fill="#002F6C"/>
<path d="M90.2055 88.7756C90.2055 89.3046 90.0891 89.7842 89.8563 90.2145C89.6236 90.6447 89.3027 90.9833 88.8936 91.2301C88.4845 91.4699 88.0296 91.5898 87.5288 91.5898C87.028 91.5898 86.5731 91.4699 86.164 91.2301C85.7549 90.9833 85.434 90.6447 85.2012 90.2145C84.9685 89.7842 84.8521 89.3046 84.8521 88.7756C84.8521 88.2466 84.9685 87.767 85.2012 87.3368C85.434 86.9065 85.7549 86.568 86.164 86.3211C86.5731 86.0742 87.028 85.9508 87.5288 85.9508C88.0296 85.9508 88.4845 86.0742 88.8936 86.3211C89.3027 86.568 89.6236 86.9065 89.8563 87.3368C90.0891 87.767 90.2055 88.2466 90.2055 88.7756ZM89.5707 88.7756C89.5707 88.3524 89.4825 87.9715 89.3062 87.633C89.1299 87.2944 88.883 87.0299 88.5656 86.8395C88.2553 86.642 87.9097 86.5433 87.5288 86.5433C87.1479 86.5433 86.8023 86.642 86.492 86.8395C86.1816 87.0299 85.9348 87.2944 85.7514 87.633C85.5751 87.9715 85.4869 88.3524 85.4869 88.7756C85.4869 89.1917 85.5751 89.5691 85.7514 89.9076C85.9348 90.2462 86.1816 90.5142 86.492 90.7117C86.8023 90.9021 87.1479 90.9974 87.5288 90.9974C87.9097 90.9974 88.2553 90.9021 88.5656 90.7117C88.883 90.5213 89.1299 90.2568 89.3062 89.9182C89.4825 89.5797 89.5707 89.1988 89.5707 88.7756Z" fill="#002F6C"/>
<path d="M94.0748 85.9508C94.5403 85.9508 94.9635 86.0707 95.3444 86.3105C95.7252 86.5503 96.0215 86.8854 96.2331 87.3156C96.4517 87.7388 96.561 88.2184 96.561 88.7544C96.561 89.2834 96.4517 89.7666 96.2331 90.2039C96.0215 90.6341 95.7252 90.9727 95.3444 91.2195C94.9705 91.4664 94.5509 91.5898 94.0854 91.5898C93.6833 91.5898 93.3095 91.4911 92.9639 91.2936C92.6254 91.0891 92.3503 90.821 92.1387 90.4895V91.1878C92.1387 91.2795 92.1069 91.3571 92.0435 91.4206C91.987 91.484 91.913 91.5158 91.8213 91.5158C91.7296 91.5158 91.652 91.484 91.5885 91.4206C91.5321 91.3571 91.5039 91.2795 91.5039 91.1878V83.983C91.5039 83.8913 91.5321 83.8172 91.5885 83.7608C91.652 83.6973 91.7296 83.6656 91.8213 83.6656C91.913 83.6656 91.987 83.6973 92.0435 83.7608C92.1069 83.8172 92.1387 83.8913 92.1387 83.983V87.104C92.3291 86.7584 92.5971 86.4798 92.9427 86.2682C93.2884 86.0566 93.6657 85.9508 94.0748 85.9508ZM94.0219 90.9974C94.3886 90.9974 94.7166 90.8986 95.0058 90.7011C95.302 90.5036 95.5313 90.2356 95.6935 89.8971C95.8628 89.5515 95.9474 89.1706 95.9474 88.7544C95.9474 88.3313 95.8628 87.9539 95.6935 87.6224C95.5313 87.2839 95.302 87.0194 95.0058 86.8289C94.7166 86.6385 94.3886 86.5433 94.0219 86.5433C93.6481 86.5433 93.313 86.6385 93.0168 86.8289C92.7206 87.0123 92.4913 87.2733 92.3291 87.6118C92.1669 87.9504 92.0858 88.3313 92.0858 88.7544C92.0858 89.1776 92.1669 89.562 92.3291 89.9076C92.4984 90.2462 92.7276 90.5142 93.0168 90.7117C93.313 90.9021 93.6481 90.9974 94.0219 90.9974Z" fill="#002F6C"/>
<path d="M98.4819 91.1666C98.4819 91.2583 98.4502 91.3359 98.3867 91.3994C98.3303 91.4558 98.2562 91.484 98.1645 91.484C98.0728 91.484 97.9952 91.4558 97.9318 91.3994C97.8753 91.3359 97.8471 91.2583 97.8471 91.1666V86.2999C97.8471 86.2082 97.8753 86.1342 97.9318 86.0778C97.9952 86.0143 98.0728 85.9825 98.1645 85.9825C98.2562 85.9825 98.3303 86.0143 98.3867 86.0778C98.4502 86.1342 98.4819 86.2082 98.4819 86.2999V91.1666ZM98.1645 85.2737C98.0235 85.2737 97.9141 85.242 97.8366 85.1785C97.759 85.1079 97.7202 85.0092 97.7202 84.8822V84.7764C97.7202 84.6495 97.759 84.5543 97.8366 84.4908C97.9212 84.4203 98.034 84.385 98.1751 84.385C98.4572 84.385 98.5983 84.5155 98.5983 84.7764V84.8822C98.5983 85.0092 98.5595 85.1079 98.4819 85.1785C98.4114 85.242 98.3056 85.2737 98.1645 85.2737Z" fill="#002F6C"/>
<path d="M100.829 91.1666C100.829 91.2583 100.797 91.3359 100.734 91.3994C100.678 91.4558 100.604 91.484 100.512 91.484C100.42 91.484 100.343 91.4558 100.279 91.3994C100.223 91.3359 100.194 91.2583 100.194 91.1666V83.9724C100.194 83.8807 100.223 83.8066 100.279 83.7502C100.343 83.6867 100.42 83.655 100.512 83.655C100.604 83.655 100.678 83.6867 100.734 83.7502C100.797 83.8066 100.829 83.8807 100.829 83.9724V91.1666Z" fill="#002F6C"/>
<path d="M103.183 91.1666C103.183 91.2583 103.151 91.3359 103.088 91.3994C103.031 91.4558 102.957 91.484 102.866 91.484C102.774 91.484 102.696 91.4558 102.633 91.3994C102.576 91.3359 102.548 91.2583 102.548 91.1666V86.2999C102.548 86.2082 102.576 86.1342 102.633 86.0778C102.696 86.0143 102.774 85.9825 102.866 85.9825C102.957 85.9825 103.031 86.0143 103.088 86.0778C103.151 86.1342 103.183 86.2082 103.183 86.2999V91.1666ZM102.866 85.2737C102.724 85.2737 102.615 85.242 102.538 85.1785C102.46 85.1079 102.421 85.0092 102.421 84.8822V84.7764C102.421 84.6495 102.46 84.5543 102.538 84.4908C102.622 84.4203 102.735 84.385 102.876 84.385C103.158 84.385 103.299 84.5155 103.299 84.7764V84.8822C103.299 85.0092 103.26 85.1079 103.183 85.1785C103.112 85.242 103.007 85.2737 102.866 85.2737Z" fill="#002F6C"/>
<path d="M109.223 86.0778C109.314 86.0778 109.388 86.1095 109.445 86.173C109.508 86.2365 109.54 86.314 109.54 86.4057V91.1666C109.54 91.2583 109.508 91.3359 109.445 91.3994C109.388 91.4558 109.314 91.484 109.223 91.484C109.131 91.484 109.053 91.4558 108.99 91.3994C108.933 91.3359 108.905 91.2583 108.905 91.1666V90.4578C108.729 90.7752 108.464 91.0432 108.112 91.2619C107.759 91.4805 107.375 91.5898 106.958 91.5898C106.486 91.5898 106.059 91.4664 105.678 91.2195C105.305 90.9727 105.008 90.6341 104.79 90.2039C104.578 89.7736 104.472 89.2905 104.472 88.7544C104.472 88.2184 104.582 87.7388 104.8 87.3156C105.019 86.8854 105.315 86.5503 105.689 86.3105C106.07 86.0707 106.489 85.9508 106.948 85.9508C107.371 85.9508 107.759 86.0531 108.112 86.2576C108.464 86.4622 108.729 86.7302 108.905 87.0617V86.4057C108.905 86.314 108.933 86.2365 108.99 86.173C109.053 86.1095 109.131 86.0778 109.223 86.0778ZM107.022 90.9974C107.389 90.9974 107.717 90.9021 108.006 90.7117C108.302 90.5142 108.531 90.2462 108.694 89.9076C108.863 89.562 108.947 89.1776 108.947 88.7544C108.947 88.3454 108.863 87.9715 108.694 87.633C108.531 87.2944 108.302 87.0299 108.006 86.8395C107.717 86.642 107.389 86.5433 107.022 86.5433C106.655 86.5433 106.324 86.6385 106.027 86.8289C105.738 87.0194 105.509 87.2839 105.34 87.6224C105.178 87.9539 105.096 88.3313 105.096 88.7544C105.096 89.1776 105.178 89.562 105.34 89.9076C105.502 90.2462 105.728 90.5142 106.017 90.7117C106.313 90.9021 106.648 90.9974 107.022 90.9974ZM106.948 85.6546C106.906 85.6546 106.867 85.6369 106.832 85.6017C106.796 85.5594 106.779 85.5135 106.779 85.4641C106.779 85.4218 106.796 85.3724 106.832 85.316L107.477 84.3109C107.562 84.1558 107.681 84.0782 107.837 84.0782C107.942 84.0782 108.027 84.1064 108.091 84.1628C108.154 84.2192 108.182 84.3004 108.175 84.4062C108.175 84.4837 108.14 84.5649 108.069 84.6495L107.276 85.4853C107.163 85.5981 107.054 85.6546 106.948 85.6546Z" fill="#002F6C"/>
<path d="M113.725 85.9508C113.866 85.9508 113.993 85.979 114.106 86.0354C114.219 86.0919 114.275 86.1765 114.275 86.2894C114.275 86.3881 114.247 86.4692 114.19 86.5327C114.134 86.5891 114.067 86.6173 113.989 86.6173C113.954 86.6173 113.884 86.5997 113.778 86.5644C113.679 86.5292 113.584 86.5115 113.492 86.5115C113.231 86.5115 112.97 86.6138 112.709 86.8183C112.455 87.0158 112.244 87.2733 112.074 87.5907C111.912 87.9081 111.831 88.229 111.831 88.5534V91.1666C111.831 91.2583 111.799 91.3359 111.736 91.3994C111.679 91.4558 111.605 91.484 111.514 91.484C111.422 91.484 111.344 91.4558 111.281 91.3994C111.225 91.3359 111.196 91.2583 111.196 91.1666V86.4269C111.196 86.3352 111.225 86.2611 111.281 86.2047C111.344 86.1412 111.422 86.1095 111.514 86.1095C111.605 86.1095 111.679 86.1412 111.736 86.2047C111.799 86.2611 111.831 86.3352 111.831 86.4269V87.3579C111.993 86.9559 112.237 86.6244 112.561 86.3634C112.893 86.0954 113.281 85.9579 113.725 85.9508Z" fill="#002F6C"/>
<path d="M115.881 91.1666C115.881 91.2583 115.849 91.3359 115.785 91.3994C115.729 91.4558 115.655 91.484 115.563 91.484C115.472 91.484 115.394 91.4558 115.331 91.3994C115.274 91.3359 115.246 91.2583 115.246 91.1666V86.2999C115.246 86.2082 115.274 86.1342 115.331 86.0778C115.394 86.0143 115.472 85.9825 115.563 85.9825C115.655 85.9825 115.729 86.0143 115.785 86.0778C115.849 86.1342 115.881 86.2082 115.881 86.2999V91.1666ZM115.563 85.2737C115.422 85.2737 115.313 85.242 115.235 85.1785C115.158 85.1079 115.119 85.0092 115.119 84.8822V84.7764C115.119 84.6495 115.158 84.5543 115.235 84.4908C115.32 84.4203 115.433 84.385 115.574 84.385C115.856 84.385 115.997 84.5155 115.997 84.7764V84.8822C115.997 85.0092 115.958 85.1079 115.881 85.1785C115.81 85.242 115.704 85.2737 115.563 85.2737Z" fill="#002F6C"/>
<path d="M122.523 88.7756C122.523 89.3046 122.407 89.7842 122.174 90.2145C121.942 90.6447 121.621 90.9833 121.212 91.2301C120.802 91.4699 120.348 91.5898 119.847 91.5898C119.346 91.5898 118.891 91.4699 118.482 91.2301C118.073 90.9833 117.752 90.6447 117.519 90.2145C117.286 89.7842 117.17 89.3046 117.17 88.7756C117.17 88.2466 117.286 87.767 117.519 87.3368C117.752 86.9065 118.073 86.568 118.482 86.3211C118.891 86.0742 119.346 85.9508 119.847 85.9508C120.348 85.9508 120.802 86.0742 121.212 86.3211C121.621 86.568 121.942 86.9065 122.174 87.3368C122.407 87.767 122.523 88.2466 122.523 88.7756ZM121.889 88.7756C121.889 88.3524 121.8 87.9715 121.624 87.633C121.448 87.2944 121.201 87.0299 120.884 86.8395C120.573 86.642 120.228 86.5433 119.847 86.5433C119.466 86.5433 119.12 86.642 118.81 86.8395C118.5 87.0299 118.253 87.2944 118.069 87.633C117.893 87.9715 117.805 88.3524 117.805 88.7756C117.805 89.1917 117.893 89.5691 118.069 89.9076C118.253 90.2462 118.5 90.5142 118.81 90.7117C119.12 90.9021 119.466 90.9974 119.847 90.9974C120.228 90.9974 120.573 90.9021 120.884 90.7117C121.201 90.5213 121.448 90.2568 121.624 89.9182C121.8 89.5797 121.889 89.1988 121.889 88.7756Z" fill="#002F6C"/>
<path d="M123.515 90.6271C123.459 90.5354 123.43 90.4578 123.43 90.3943C123.43 90.3026 123.476 90.2321 123.568 90.1827C123.61 90.1404 123.667 90.1192 123.737 90.1192C123.822 90.1192 123.899 90.1545 123.97 90.225C124.386 90.7752 124.94 91.0503 125.631 91.0503C125.97 91.0503 126.262 90.9727 126.509 90.8175C126.763 90.6553 126.89 90.4225 126.89 90.1192C126.89 89.823 126.774 89.6008 126.541 89.4527C126.308 89.3046 125.984 89.1776 125.567 89.0718C124.982 88.9237 124.524 88.7333 124.192 88.5005C123.861 88.2607 123.695 87.9116 123.695 87.4531C123.695 87.164 123.776 86.9065 123.938 86.6808C124.1 86.4481 124.319 86.2682 124.594 86.1412C124.876 86.0143 125.194 85.9508 125.546 85.9508C125.85 85.9508 126.153 86.0108 126.456 86.1307C126.767 86.2435 127.031 86.4269 127.25 86.6808C127.313 86.7302 127.345 86.8007 127.345 86.8924C127.345 86.977 127.31 87.0511 127.239 87.1146C127.19 87.1569 127.126 87.1781 127.049 87.1781C126.978 87.1781 126.915 87.1498 126.858 87.0934C126.689 86.903 126.488 86.7584 126.255 86.6597C126.022 86.5609 125.772 86.5115 125.504 86.5115C125.173 86.5115 124.887 86.5891 124.647 86.7443C124.414 86.8995 124.298 87.1322 124.298 87.4426C124.312 87.7247 124.439 87.9398 124.679 88.0879C124.926 88.236 125.285 88.37 125.758 88.49C126.125 88.5816 126.428 88.6839 126.668 88.7968C126.908 88.9096 127.102 89.0683 127.25 89.2729C127.405 89.4774 127.482 89.7489 127.482 90.0875C127.482 90.546 127.299 90.9127 126.932 91.1878C126.566 91.4558 126.111 91.5898 125.567 91.5898C124.707 91.5898 124.023 91.2689 123.515 90.6271Z" fill="#002F6C"/>
<line y1="77.9149" x2="130.069" y2="77.9149" stroke="#ED6D1D"/>
<g clip-path="url(#clip0)">
<path d="M47.066 43.0824L44.5795 43.0481C43.5994 43.035 42.931 42.3032 43.0956 41.422C43.2601 40.5409 44.1966 39.8313 45.1768 39.8444L47.6632 39.8788C48.6433 39.8919 49.3117 40.6237 49.1471 41.5048C48.9826 42.3849 48.0461 43.0955 47.066 43.0824Z" fill="#ED6D1D"/>
<path d="M87.559 17.3676C87.554 17.3605 87.5509 17.3525 87.5458 17.3454L75.3736 0.597528C75.3523 0.559174 75.33 0.520819 75.3036 0.485492C75.073 0.167552 74.6728 0.0060591 74.2147 0.00101243C73.7577 -0.00706223 73.2427 0.142319 72.7795 0.451175C72.7267 0.486502 72.6769 0.522838 72.6272 0.560183L51.6305 14.5516C50.7093 15.1652 50.3315 16.1867 50.7916 16.8195C51.2517 17.4524 52.3822 17.4685 53.3034 16.8538L71.0762 5.01033C72.0269 4.37647 73.3118 4.60559 73.9821 5.52812L83.157 18.1518C83.5937 18.7524 83.7014 19.5296 83.4434 20.225L76.5285 38.9138C76.2146 39.7637 75.395 40.3239 74.4839 40.3107L53.0596 40.017C52.0825 40.0039 51.016 40.7145 50.69 41.5966C50.364 42.4788 50.8962 43.2116 51.8733 43.2247L76.5945 43.5638C77.5716 43.577 78.6381 42.8664 78.9642 41.9842L87.6555 18.496C87.815 18.06 87.7662 17.6623 87.559 17.3676Z" fill="#213564"/>
<path d="M75.2558 23.3863L58.3484 23.1561C57.3683 23.143 56.6999 22.4112 56.8645 21.5301C57.029 20.649 57.9655 19.9394 58.9456 19.9525L75.8531 20.1826C76.8332 20.1958 77.5015 20.9275 77.337 21.8087C77.1735 22.6888 76.237 23.3994 75.2558 23.3863Z" fill="#03579C"/>
<path d="M52.0043 23.0683L47.5505 23.0078C46.5703 22.9946 45.902 22.2629 46.0665 21.3817C46.2311 20.5006 47.1675 19.791 48.1477 19.8041L52.6016 19.8647C53.5817 19.8778 54.25 20.6096 54.0855 21.4907C53.921 22.3719 52.9845 23.0825 52.0043 23.0683Z" fill="#ED6D1D"/>
<path d="M67.5436 37.1142L41.958 36.765C40.9778 36.7518 40.3095 36.0201 40.474 35.1389C40.6386 34.2578 41.5751 33.5482 42.5552 33.5613L68.1408 33.9106C69.121 33.9237 69.7893 34.6555 69.6248 35.5366C69.4602 36.4177 68.5237 37.1273 67.5436 37.1142Z" fill="#03579C"/>
<path d="M63.5153 30.2679L40.7168 29.957C39.7366 29.9439 39.0683 29.2121 39.2329 28.331C39.3974 27.4498 40.3339 26.7403 41.314 26.7534L64.1135 27.0643C65.0937 27.0774 65.762 27.8091 65.5975 28.6903C65.4329 29.5714 64.4965 30.281 63.5153 30.2679Z" fill="#213564"/>
<path d="M72.0117 30.3829L69.8604 30.3537C68.8803 30.3406 68.2119 29.6088 68.3765 28.7276C68.541 27.8465 69.4775 27.1369 70.4576 27.1501L72.6089 27.1793C73.5891 27.1924 74.2574 27.9242 74.0928 28.8054C73.9293 29.6865 72.9928 30.3971 72.0117 30.3829Z" fill="#ED6D1D"/>
</g>
<defs>
<clipPath id="clip0">
<rect x="39.2075" width="48.5425" height="43.5638" fill="white"/>
</clipPath>
</defs>
</svg>
